<svg width="359" height="181" viewBox="0 0 359 181" fill="none" xmlns="http://www.w3.org/2000/svg">
<path d="M291.275 160C289.418 160 287.997 159.507 287.011 158.52C286.024 157.534 285.531 156.113 285.531 154.256V104.827C285.531 102.971 286.024 101.55 287.011 100.563C287.997 99.5771 289.418 99.084 291.275 99.084H307.113C313.959 99.084 319.789 100.273 324.604 102.652C329.42 104.973 333.075 108.424 335.569 113.008C338.122 117.533 339.398 123.073 339.398 129.629C339.398 135.779 338.18 141.145 335.743 145.728C333.307 150.253 329.681 153.763 324.865 156.258C320.05 158.752 314.22 160 307.374 160H291.275ZM306.591 150.34C310.942 150.34 314.684 149.586 317.817 148.078C321.007 146.569 323.444 144.278 325.127 141.203C326.867 138.07 327.737 134.212 327.737 129.629C327.737 125.22 326.925 121.478 325.301 118.403C323.734 115.27 321.356 112.892 318.165 111.267C315.032 109.585 311.145 108.743 306.504 108.743H296.931V150.34H306.591Z" fill="#666666"/>
<path d="M242.495 160C240.639 160 239.218 159.507 238.231 158.521C237.245 157.535 236.752 156.113 236.752 154.257V104.48C236.752 102.333 237.245 100.709 238.231 99.6067C239.218 98.4464 240.639 97.8662 242.495 97.8662C244.294 97.8662 245.686 98.4464 246.673 99.6067C247.659 100.709 248.152 102.333 248.152 104.48V150.341H273.127C274.868 150.341 276.231 150.776 277.217 151.646C278.262 152.458 278.784 153.619 278.784 155.127C278.784 156.635 278.262 157.825 277.217 158.695C276.231 159.565 274.868 160 273.127 160H242.495Z" fill="#666666"/>
<path d="M185.045 161.218C183.247 161.218 181.854 160.667 180.868 159.565C179.882 158.404 179.389 156.751 179.389 154.604V104.827C179.389 102.971 179.882 101.55 180.868 100.563C181.854 99.5771 183.276 99.084 185.132 99.084H206.453C212.37 99.084 217.098 100.476 220.637 103.261C224.234 105.988 226.033 109.933 226.033 115.096C226.033 118.983 224.901 122.203 222.639 124.756C220.376 127.25 217.621 128.991 214.372 129.977C217.853 130.557 220.492 132.066 222.291 134.502C224.089 136.939 224.989 140.13 224.989 144.075V154.604C224.989 156.751 224.495 158.404 223.509 159.565C222.523 160.667 221.101 161.218 219.245 161.218C217.447 161.218 216.054 160.667 215.068 159.565C214.082 158.404 213.589 156.751 213.589 154.604V145.119C213.589 141.522 212.834 138.998 211.326 137.548C209.818 136.04 207.207 135.285 203.494 135.285H190.789V154.604C190.789 156.751 190.296 158.404 189.309 159.565C188.323 160.667 186.902 161.218 185.045 161.218ZM204.277 125.539C206.482 125.539 208.338 125.22 209.847 124.582C211.355 123.943 212.457 123.015 213.153 121.797C213.908 120.579 214.285 119.041 214.285 117.185C214.285 114.4 213.444 112.311 211.761 110.919C210.079 109.469 207.584 108.743 204.277 108.743H190.789V125.539H204.277Z" fill="#666666"/>
<path d="M139.31 161.566C133.566 161.566 128.432 160.319 123.907 157.824C119.44 155.272 115.901 151.588 113.29 146.772C110.737 141.957 109.461 136.214 109.461 129.542C109.461 123.16 110.737 117.562 113.29 112.747C115.901 107.873 119.469 104.131 123.994 101.521C128.519 98.8519 133.624 97.5176 139.31 97.5176C144.995 97.5176 150.1 98.8519 154.626 101.521C159.209 104.189 162.806 107.96 165.416 112.834C168.085 117.649 169.419 123.218 169.419 129.542C169.419 136.156 168.114 141.899 165.503 146.772C162.893 151.588 159.296 155.272 154.713 157.824C150.188 160.319 145.053 161.566 139.31 161.566ZM139.31 151.907C142.907 151.907 146.097 151.036 148.882 149.296C151.667 147.556 153.813 145.003 155.322 141.638C156.888 138.273 157.671 134.241 157.671 129.542C157.671 125.075 156.888 121.159 155.322 117.794C153.813 114.371 151.667 111.76 148.882 109.962C146.097 108.105 142.907 107.177 139.31 107.177C135.713 107.177 132.551 108.076 129.824 109.875C127.098 111.673 124.98 114.284 123.472 117.707C121.963 121.072 121.209 125.017 121.209 129.542C121.209 134.183 121.963 138.186 123.472 141.551C124.98 144.916 127.098 147.498 129.824 149.296C132.551 151.036 135.713 151.907 139.31 151.907Z" fill="#666666"/>
<path d="M41.3676 161.219C39.047 161.219 37.0455 160.668 35.3631 159.565C33.6806 158.405 32.5783 156.78 32.0562 154.692L19.4379 106.568C18.9738 104.77 18.9738 103.204 19.4379 101.869C19.9021 100.535 20.6563 99.5486 21.7005 98.9105C22.8028 98.2143 23.9341 97.8662 25.0944 97.8662C26.6028 97.8662 27.8791 98.3013 28.9234 99.1715C29.9677 100.042 30.6638 101.202 31.0119 102.652L39.4531 138.941C39.8012 140.507 40.0623 141.668 40.2363 142.422C40.4104 143.118 40.6714 144.22 41.0195 145.729C41.3096 147.063 41.5707 148.426 41.8027 149.819C42.3249 146.57 43.0791 142.944 44.0653 138.941L52.7676 104.567C53.2897 102.42 54.421 100.767 56.1615 99.6067C57.9599 98.4464 60.0195 97.8662 62.3401 97.8662C64.7187 97.8662 66.7782 98.4464 68.5187 99.6067C70.2591 100.767 71.3904 102.42 71.9126 104.567L79.9186 138.941C80.2087 140.043 80.4698 141.145 80.7018 142.248C80.9919 143.466 81.282 144.713 81.5721 145.99C81.8621 147.208 82.1232 148.484 82.3553 149.819C82.9934 145.874 83.7186 142.248 84.5308 138.941L93.2331 103.088C93.6392 101.463 94.3354 100.187 95.3216 99.2586C96.3659 98.3303 97.6132 97.8662 99.0636 97.8662C100.224 97.8662 101.297 98.1853 102.283 98.8235C103.27 99.4036 103.966 100.332 104.372 101.608C104.778 102.885 104.749 104.451 104.285 106.307L91.5797 154.692C91.0575 156.839 89.9552 158.463 88.2728 159.565C86.5904 160.668 84.5888 161.219 82.2682 161.219C79.9476 161.219 77.9751 160.668 76.3507 159.565C74.7263 158.405 73.653 156.78 73.1309 154.692L64.2546 116.663L63.9935 115.445C63.7614 114.517 63.5004 113.443 63.2103 112.225C62.9782 111.007 62.7462 109.672 62.5141 108.222C62.108 110.194 61.6729 112.196 61.2088 114.226C61.2088 114.226 61.0057 115.039 60.5996 116.663L50.679 154.692C50.1569 156.839 49.0546 158.463 47.3722 159.565C45.6897 160.668 43.6882 161.219 41.3676 161.219Z" fill="#666666"/>
<path d="M274.993 83.2181C273.137 83.2181 271.716 82.667 270.729 81.5647C269.743 80.4044 269.25 78.7509 269.25 76.6044V30.7435H254.543C252.803 30.7435 251.41 30.3374 250.366 29.5252C249.38 28.6549 248.887 27.4656 248.887 25.9572C248.887 24.4489 249.38 23.2596 250.366 22.3893C251.41 21.5191 252.803 21.084 254.543 21.084H295.27C297.01 21.084 298.374 21.5191 299.36 22.3893C300.404 23.2015 300.926 24.3618 300.926 25.8702C300.926 27.3786 300.404 28.5679 299.36 29.4382C298.374 30.3084 297.01 30.7435 295.27 30.7435H280.65V76.6044C280.65 78.7509 280.157 80.4044 279.171 81.5647C278.184 82.667 276.792 83.2181 274.993 83.2181Z" fill="#666666"/>
<path d="M218.132 83.5662C212.388 83.5662 207.254 82.3189 202.729 79.8242C198.262 77.2716 194.723 73.5876 192.112 68.7724C189.56 63.9571 188.283 58.2136 188.283 51.5419C188.283 45.1602 189.56 39.5618 192.112 34.7465C194.723 29.8733 198.291 26.1313 202.816 23.5206C207.341 20.8519 212.446 19.5176 218.132 19.5176C223.817 19.5176 228.923 20.8519 233.448 23.5206C238.031 26.1893 241.628 29.9603 244.239 34.8336C246.907 39.6488 248.242 45.2182 248.242 51.5419C248.242 58.1556 246.936 63.8991 244.326 68.7724C241.715 73.5876 238.118 77.2716 233.535 79.8242C229.01 82.3189 223.875 83.5662 218.132 83.5662ZM218.132 73.9067C221.729 73.9067 224.92 73.0365 227.704 71.296C230.489 69.5556 232.636 67.0029 234.144 63.638C235.711 60.2732 236.494 56.2411 236.494 51.5419C236.494 47.0747 235.711 43.1587 234.144 39.7938C232.636 36.371 230.489 33.7603 227.704 31.9618C224.92 30.1053 221.729 29.1771 218.132 29.1771C214.535 29.1771 211.373 30.0763 208.646 31.8748C205.92 33.6733 203.802 36.2839 202.294 39.7068C200.785 43.0717 200.031 47.0167 200.031 51.5419C200.031 56.1831 200.785 60.1861 202.294 63.551C203.802 66.9159 205.92 69.4975 208.646 71.296C211.373 73.0365 214.535 73.9067 218.132 73.9067Z" fill="#666666"/>
<path d="M151.249 83.5662C145.506 83.5662 140.371 82.3189 135.846 79.8242C131.379 77.2716 127.84 73.5876 125.229 68.7724C122.677 63.9571 121.4 58.2136 121.4 51.5419C121.4 45.1602 122.677 39.5618 125.229 34.7465C127.84 29.8733 131.408 26.1313 135.933 23.5206C140.458 20.8519 145.564 19.5176 151.249 19.5176C156.935 19.5176 162.04 20.8519 166.565 23.5206C171.148 26.1893 174.745 29.9603 177.356 34.8336C180.025 39.6488 181.359 45.2182 181.359 51.5419C181.359 58.1556 180.054 63.8991 177.443 68.7724C174.832 73.5876 171.235 77.2716 166.652 79.8242C162.127 82.3189 156.993 83.5662 151.249 83.5662ZM151.249 73.9067C154.846 73.9067 158.037 73.0365 160.822 71.296C163.606 69.5556 165.753 67.0029 167.261 63.638C168.828 60.2732 169.611 56.2411 169.611 51.5419C169.611 47.0747 168.828 43.1587 167.261 39.7938C165.753 36.371 163.606 33.7603 160.822 31.9618C158.037 30.1053 154.846 29.1771 151.249 29.1771C147.652 29.1771 144.49 30.0763 141.764 31.8748C139.037 33.6733 136.919 36.2839 135.411 39.7068C133.903 43.0717 133.148 47.0167 133.148 51.5419C133.148 56.1831 133.903 60.1861 135.411 63.551C136.919 66.9159 139.037 69.4975 141.764 71.296C144.49 73.0365 147.652 73.9067 151.249 73.9067Z" fill="#666666"/>
<path d="M90.4689 83.5662C86.4659 83.5662 82.8399 83.0441 79.5911 81.9998C76.3422 80.9555 73.5575 79.4471 71.2369 77.4746C68.9163 75.4441 67.0888 73.0075 65.7545 70.1647C64.7682 68.0182 64.4201 66.1907 64.7102 64.6823C65.0003 63.1739 65.6675 62.0426 66.7117 61.2884C67.756 60.4762 68.9163 60.0701 70.1926 60.0701C71.643 60.0701 72.8613 60.5342 73.8476 61.4625C74.8338 62.3327 75.6751 63.638 76.3712 65.3785C77.1254 67.235 78.2277 68.8014 79.6781 70.0777C81.1285 71.354 82.8109 72.3113 84.7254 72.9494C86.6979 73.5876 88.7865 73.9067 90.991 73.9067C93.3696 73.9067 95.4582 73.6166 97.2567 73.0365C99.1131 72.4563 100.564 71.5571 101.608 70.3388C102.652 69.0624 103.174 67.467 103.174 65.5525C103.174 63.2899 102.362 61.4915 100.738 60.1571C99.1131 58.7648 96.5895 57.7495 93.1666 57.1113L82.8109 55.1098C77.7056 54.1236 73.5865 52.1801 70.4537 49.2793C67.3209 46.3205 65.7545 42.5205 65.7545 37.8793C65.7545 34.3404 66.7698 31.1786 68.8003 28.3939C70.8308 25.6092 73.6445 23.4336 77.2415 21.8672C80.8964 20.3008 84.9865 19.5176 89.5117 19.5176C93.1666 19.5176 96.4445 19.9817 99.3452 20.9099C102.304 21.7802 104.799 23.0855 106.829 24.826C108.918 26.5084 110.542 28.5099 111.702 30.8305C112.747 32.9771 113.124 34.8045 112.834 36.3129C112.544 37.7633 111.876 38.8656 110.832 39.6198C109.846 40.316 108.773 40.6641 107.612 40.6641C106.162 40.6641 104.915 40.287 103.87 39.5328C102.826 38.7206 102.014 37.5313 101.434 35.9648C100.912 34.5725 100.099 33.3832 98.9971 32.3969C97.8948 31.3527 96.5025 30.5404 94.82 29.9603C93.1376 29.3801 91.1941 29.0901 88.9895 29.0901C86.7269 29.0901 84.6964 29.4091 82.8979 30.0473C81.0995 30.6275 79.6781 31.5267 78.6338 32.745C77.6476 33.9053 77.1544 35.2977 77.1544 36.9221C77.1544 39.1267 77.9957 40.7801 79.6781 41.8824C81.3605 42.9267 83.9422 43.7969 87.4231 44.4931L97.6918 46.4946C100.999 47.1327 103.899 48.177 106.394 49.6274C108.947 51.0778 110.948 53.0213 112.399 55.4579C113.907 57.8365 114.661 60.6503 114.661 63.8991C114.661 67.7281 113.704 71.122 111.789 74.0807C109.933 77.0395 107.177 79.3601 103.522 81.0425C99.9253 82.725 95.5742 83.5662 90.4689 83.5662Z" fill="#666666"/>
<path fill-rule="evenodd" clip-rule="evenodd" d="M267.133 160C267.985 163.969 269.869 168.249 273.576 171.955C279.183 177.563 286.104 179 291.275 179H307.374C316.482 179 325.473 177.341 333.606 173.128C341.616 168.978 348.121 162.817 352.472 154.736L352.52 154.647C356.664 146.852 358.398 138.315 358.398 129.629C358.398 120.69 356.664 111.791 352.187 103.796C347.757 95.7185 341.162 89.5605 332.938 85.5768C324.91 81.6301 316.07 80.084 307.113 80.084H291.275C286.104 80.084 279.183 81.5211 273.576 87.1283C267.968 92.7356 266.531 99.6563 266.531 104.827V150.34H273.126C274.867 150.34 276.23 150.775 277.217 151.646C277.549 151.904 277.829 152.199 278.056 152.528C278.397 153.024 278.618 153.6 278.719 154.256C278.762 154.532 278.783 154.822 278.783 155.127C278.783 155.374 278.769 155.614 278.741 155.844C278.597 157.017 278.089 157.967 277.217 158.694C276.23 159.565 274.867 160 273.126 160H267.133ZM322.937 101.893C318.462 100.02 313.187 99.084 307.113 99.084H291.275C289.418 99.084 287.997 99.5771 287.011 100.563C286.024 101.55 285.531 102.971 285.531 104.827V154.256C285.531 156.113 286.024 157.534 287.011 158.52C287.997 159.507 289.418 160 291.275 160H307.374C313.023 160 317.981 159.15 322.248 157.451C322.271 157.442 322.294 157.433 322.317 157.424C323.196 157.071 324.045 156.683 324.865 156.258C329.304 153.958 332.732 150.796 335.15 146.771C335.162 146.75 335.175 146.729 335.188 146.708C335.379 146.387 335.564 146.06 335.743 145.728C338.18 141.145 339.398 135.779 339.398 129.629C339.398 123.171 338.16 117.699 335.683 113.212C335.645 113.143 335.607 113.075 335.569 113.008C335.565 113 335.561 112.992 335.557 112.985C333.062 108.413 329.412 104.969 324.604 102.652C324.13 102.417 323.645 102.194 323.151 101.983C323.08 101.953 323.008 101.923 322.937 101.893ZM325.301 118.403C324.042 115.885 322.258 113.854 319.95 112.311C319.92 112.291 319.891 112.272 319.862 112.253C319.324 111.898 318.759 111.569 318.165 111.267C317.459 110.888 316.714 110.551 315.931 110.258C313.394 109.306 310.455 108.803 307.113 108.748C306.911 108.745 306.708 108.743 306.504 108.743H296.931V150.34H306.591C306.854 150.34 307.115 150.338 307.374 150.332C310.565 150.264 313.418 149.776 315.931 148.868C316.582 148.633 317.211 148.369 317.817 148.078C318.586 147.714 319.311 147.305 319.992 146.851C322.138 145.419 323.85 143.537 325.127 141.203C325.286 140.917 325.437 140.624 325.582 140.326C325.591 140.308 325.6 140.289 325.608 140.271C327.028 137.315 327.737 133.768 327.737 129.629C327.737 125.366 326.978 121.726 325.459 118.711C325.433 118.658 325.406 118.606 325.379 118.554C325.353 118.503 325.327 118.453 325.301 118.403Z" fill="#EBFF00"/>
<path fill-rule="evenodd" clip-rule="evenodd" d="M218.641 161.197C219.6 164.818 221.46 168.62 224.796 171.956C230.404 177.563 237.324 179 242.495 179H273.127C277.915 179 284.18 177.782 289.585 173.119C293.872 169.467 296.328 164.789 297.298 160H291.276C289.419 160 287.998 159.507 287.012 158.521C286.185 157.695 285.705 156.564 285.571 155.127C285.545 154.848 285.532 154.558 285.532 154.257V134.404C281.227 132.04 276.754 131.341 273.127 131.341H267.152V104.48C267.152 99.7861 266.11 92.9562 260.996 87.1226C255.75 81.0689 248.692 78.8662 242.495 78.8662C236.459 78.8662 229.272 80.9321 223.908 87.1223C219.795 91.8145 218.316 97.1514 217.894 101.503C218.877 102.009 219.791 102.596 220.637 103.262C221.141 103.644 221.61 104.05 222.044 104.48C224.703 107.118 226.033 110.657 226.033 115.097C226.033 118.984 224.901 122.204 222.639 124.756C221.207 126.335 219.578 127.611 217.752 128.585V130.943C219.616 131.742 221.129 132.929 222.291 134.503C224.089 136.939 224.988 140.13 224.988 144.075V154.605C224.988 156.751 224.495 158.405 223.509 159.565C222.523 160.668 221.101 161.219 219.245 161.219C219.038 161.219 218.837 161.211 218.641 161.197ZM238.231 99.6067C237.245 100.709 236.752 102.333 236.752 104.48V154.257C236.752 156.113 237.245 157.535 238.231 158.521C239.218 159.507 240.639 160 242.495 160H273.127C274.868 160 276.231 159.565 277.217 158.695C278.262 157.825 278.784 156.635 278.784 155.127C278.784 153.619 278.262 152.458 277.217 151.646C276.231 150.776 274.868 150.341 273.127 150.341H248.152V104.48C248.152 102.333 247.659 100.709 246.673 99.6067C245.686 98.4464 244.294 97.8662 242.495 97.8662C240.639 97.8662 239.218 98.4464 238.231 99.6067ZM296.932 148.727V150.341H297.312C297.205 149.802 297.078 149.264 296.932 148.727Z" fill="#EBFF00"/>
<path fill-rule="evenodd" clip-rule="evenodd" d="M206.453 81.544C210.017 82.8921 213.91 83.5662 218.132 83.5662C219.978 83.5662 221.76 83.4374 223.48 83.1797C226.531 84.4139 229.484 86.0671 232.254 88.2253C235.943 91.0515 238.76 94.3955 240.798 98.0556C239.748 98.3122 238.892 98.8291 238.232 99.6061C237.245 100.708 236.752 102.333 236.752 104.479V154.256C236.752 154.374 236.754 154.49 236.758 154.604C236.817 156.291 237.308 157.597 238.232 158.52C239.218 159.507 240.639 160 242.496 160H243.512C242.818 163.819 241.239 168.042 237.986 171.87C237.882 171.993 237.776 172.114 237.669 172.234C232.196 178.35 225.026 180.218 219.245 180.218C213.77 180.218 207.355 178.52 202.188 173.56C196.911 178.624 190.385 180.218 185.045 180.218C179.108 180.218 172.065 178.221 166.708 172.234C166.601 172.114 166.495 171.993 166.391 171.87C161.488 166.101 160.389 159.433 160.389 154.604V153.606C162.384 151.661 164.089 149.383 165.504 146.772C168.115 141.899 169.42 136.156 169.42 129.542C169.42 123.218 168.086 117.649 165.417 112.834C164.022 110.23 162.346 107.942 160.389 105.967V104.827C160.389 99.6563 161.826 92.7356 167.433 87.1283C173.04 81.5211 179.961 80.084 185.132 80.084H203.211C204.259 80.6364 205.34 81.123 206.453 81.544ZM213.589 154.604C213.589 156.751 214.082 158.404 215.068 159.565C216.054 160.667 217.447 161.218 219.245 161.218C221.101 161.218 222.523 160.667 223.509 159.565C224.495 158.404 224.989 156.751 224.989 154.604V144.075C224.989 143.932 224.987 143.79 224.985 143.65C224.949 141.513 224.642 139.604 224.064 137.922C223.628 136.653 223.037 135.513 222.291 134.502C221.155 132.963 219.684 131.795 217.877 130.997C217.818 130.971 217.759 130.945 217.699 130.92C216.692 130.493 215.583 130.179 214.372 129.977C216.786 129.244 218.928 128.095 220.798 126.529C220.883 126.457 220.968 126.384 221.053 126.311C221.606 125.83 222.135 125.312 222.639 124.756C223.072 124.267 223.464 123.753 223.815 123.215C224.955 121.464 225.656 119.454 225.917 117.185C225.994 116.511 226.033 115.815 226.033 115.096C226.033 114.661 226.02 114.235 225.995 113.818C225.717 109.277 223.931 105.758 220.637 103.261C220.186 102.906 219.714 102.573 219.224 102.262C219.158 102.221 219.093 102.18 219.027 102.14C215.705 100.103 211.514 99.084 206.453 99.084H185.132C183.276 99.084 181.854 99.5771 180.868 100.563C179.882 101.55 179.389 102.971 179.389 104.827V154.604C179.389 156.751 179.882 158.404 180.868 159.565C181.854 160.667 183.247 161.218 185.045 161.218C186.902 161.218 188.323 160.667 189.309 159.565C190.296 158.404 190.789 156.751 190.789 154.604V135.285H203.494C203.761 135.285 204.022 135.289 204.277 135.297C206.575 135.367 208.412 135.752 209.789 136.453C210.389 136.758 210.901 137.123 211.326 137.548C211.914 138.113 212.387 138.841 212.746 139.733C212.927 140.183 213.079 140.676 213.202 141.21C213.353 141.866 213.46 142.585 213.522 143.366C213.53 143.466 213.537 143.566 213.544 143.667C213.553 143.801 213.56 143.937 213.566 144.075C213.581 144.412 213.589 144.76 213.589 145.119V154.604ZM204.277 125.539C206.454 125.539 208.291 125.228 209.789 124.606C209.808 124.598 209.827 124.59 209.847 124.582C210.816 124.172 211.617 123.642 212.251 122.992C212.604 122.631 212.905 122.232 213.153 121.797C213.819 120.722 214.191 119.399 214.269 117.827C214.277 117.67 214.282 117.511 214.284 117.35C214.284 117.295 214.285 117.24 214.285 117.185C214.285 117.183 214.285 117.181 214.285 117.179C214.284 116.435 214.224 115.741 214.104 115.096C213.95 114.275 213.699 113.534 213.35 112.874C213.313 112.804 213.275 112.735 213.236 112.667C212.851 111.996 212.359 111.414 211.761 110.919C211.195 110.431 210.538 110.026 209.789 109.702C208.828 109.287 207.716 109.007 206.453 108.861C205.771 108.783 205.046 108.743 204.277 108.743H190.789V125.539H204.277Z" fill="#EBFF00"/>
<path fill-rule="evenodd" clip-rule="evenodd" d="M139.31 81.4436C142.945 82.8585 146.925 83.566 151.25 83.566C154.111 83.566 156.821 83.2564 159.38 82.6374C161.028 83.3658 162.646 84.1946 164.23 85.1264C170.992 89.073 176.437 94.462 180.499 100.981C179.759 101.937 179.389 103.219 179.389 104.827V154.604C179.389 156.373 179.724 157.807 180.393 158.906C176.281 165.343 170.778 170.625 163.958 174.423L163.886 174.463C156.248 178.674 147.896 180.566 139.31 180.566C130.724 180.566 122.372 178.674 114.734 174.463C114.649 174.416 114.565 174.369 114.48 174.321C106.742 169.899 100.77 163.543 96.5872 155.828C96.5664 155.79 96.5458 155.751 96.5252 155.713C96.5179 155.699 96.5105 155.685 96.5032 155.671C95.211 153.234 94.1495 150.721 93.2969 148.151L104.285 106.307C104.749 104.45 104.778 102.884 104.372 101.607C103.966 100.331 103.27 99.4029 102.283 98.8227C101.621 98.3939 100.919 98.1092 100.178 97.9685C103.951 92.7807 108.704 88.4213 114.419 85.1093C120.569 81.4981 127.228 79.4394 134.144 78.7656C134.696 79.1377 135.264 79.4905 135.847 79.824C136.964 80.4399 138.119 80.9797 139.31 81.4436ZM154.414 101.397C149.942 98.8105 144.907 97.5174 139.31 97.5174C133.721 97.5174 128.693 98.8067 124.225 101.385C124.148 101.43 124.071 101.475 123.994 101.52C119.469 104.131 115.901 107.873 113.29 112.746C113.234 112.853 113.178 112.96 113.123 113.067C113.112 113.089 113.101 113.11 113.09 113.131C110.671 117.859 109.461 123.329 109.461 129.542C109.461 135.969 110.646 141.534 113.015 146.239C113.105 146.418 113.197 146.596 113.29 146.772C115.901 151.587 119.44 155.271 123.907 157.824C123.979 157.863 124.05 157.903 124.122 157.941C124.168 157.966 124.213 157.991 124.259 158.015C128.698 160.382 133.715 161.566 139.31 161.566C144.896 161.566 149.906 160.386 154.339 158.027C154.464 157.96 154.589 157.892 154.713 157.824C159.296 155.271 162.893 151.587 165.504 146.772C165.56 146.667 165.616 146.561 165.671 146.455C165.696 146.407 165.721 146.359 165.746 146.311C168.195 141.537 169.42 135.948 169.42 129.542C169.42 123.398 168.16 117.966 165.641 113.246C165.605 113.178 165.568 113.109 165.531 113.041C165.493 112.972 165.455 112.902 165.417 112.833C162.806 107.96 159.209 104.189 154.626 101.52C154.598 101.504 154.57 101.488 154.543 101.471C154.5 101.446 154.457 101.421 154.414 101.397ZM155.463 141.328C156.936 138.027 157.672 134.098 157.672 129.542C157.672 125.297 156.965 121.551 155.551 118.301C155.529 118.252 155.508 118.203 155.486 118.154C155.432 118.033 155.378 117.913 155.322 117.794C153.923 114.618 151.974 112.142 149.476 110.364C149.461 110.353 149.445 110.342 149.43 110.331C149.25 110.204 149.068 110.081 148.883 109.962C146.098 108.105 142.907 107.177 139.31 107.177C135.713 107.177 132.551 108.076 129.825 109.875C129.607 110.018 129.393 110.167 129.184 110.32C129.157 110.34 129.131 110.359 129.105 110.379C126.722 112.149 124.845 114.591 123.472 117.707C123.419 117.824 123.367 117.942 123.317 118.061C123.31 118.077 123.304 118.092 123.297 118.107C121.905 121.383 121.209 125.195 121.209 129.542C121.209 134.072 121.928 137.995 123.366 141.31C123.38 141.343 123.394 141.375 123.409 141.408C123.43 141.456 123.451 141.503 123.472 141.551C124.815 144.547 126.641 146.922 128.95 148.676C128.993 148.709 129.036 148.741 129.079 148.773C129.322 148.954 129.571 149.128 129.825 149.296C132.551 151.036 135.713 151.906 139.31 151.906C142.907 151.906 146.098 151.036 148.883 149.296C149.151 149.128 149.414 148.953 149.67 148.77C149.682 148.761 149.695 148.752 149.707 148.743C152.094 147.031 153.966 144.663 155.322 141.638C155.362 141.553 155.401 141.467 155.44 141.381C155.448 141.363 155.455 141.346 155.463 141.328Z" fill="#EBFF00"/>
<path fill-rule="evenodd" clip-rule="evenodd" d="M85.0388 83.2157C86.7649 83.4497 88.5754 83.5667 90.4705 83.5667C93.6223 83.5667 96.4867 83.2461 99.0636 82.6049C100.661 82.2074 102.148 81.6869 103.524 81.0431C104.348 80.6638 105.126 80.252 105.859 79.8078C108.119 80.4494 110.277 81.4107 112.283 82.6668C117.756 86.0194 120.943 91.0235 122.478 95.8473C123.124 97.8801 123.466 99.8661 123.595 101.756C120.438 103.648 117.759 106.104 115.557 109.125C115.528 109.165 115.499 109.205 115.471 109.245C114.682 110.339 113.955 111.506 113.29 112.747C110.738 117.562 109.461 123.161 109.461 129.542C109.461 136.214 110.738 141.958 113.29 146.773C113.293 146.778 113.296 146.784 113.299 146.789L109.989 159.394C108.419 165.644 104.744 171.489 98.6853 175.458C93.4544 178.885 87.705 180.219 82.2682 180.219C76.8512 180.219 70.9931 178.891 65.6822 175.287C65.6137 175.241 65.5455 175.194 65.4776 175.146C65.4206 175.107 65.3638 175.067 65.3072 175.026C64.0673 174.14 62.9309 173.175 61.8966 172.142C60.6728 173.35 59.3036 174.463 57.7847 175.458C52.5538 178.885 46.8044 180.219 41.3676 180.219C35.9308 180.219 30.1815 178.885 24.9506 175.458C24.8248 175.376 24.7 175.292 24.5761 175.206C18.9118 171.3 15.2533 165.692 13.657 159.433L1.05922 111.387L1.04067 111.316C-0.069476 107.014 -0.535315 101.457 1.4925 95.6274C3.15324 90.8527 6.37692 86.0532 11.6656 82.7765C15.3976 80.4448 19.9624 78.8662 25.0944 78.8662C30.5275 78.8662 36.2487 80.5435 41.0869 84.5753C41.6529 85.047 42.1904 85.5365 42.7 86.042C43.6079 85.2413 44.5821 84.4911 45.6222 83.7977C45.7014 83.7449 45.781 83.6927 45.861 83.641C50.9887 80.3329 56.6865 78.8662 62.3401 78.8662C67.9391 78.8662 73.7824 80.2806 79.058 83.7977C80.034 84.4484 80.952 85.1491 81.8116 85.8946C81.9713 85.7361 82.1339 85.5788 82.2997 85.4228C82.431 85.2992 82.564 85.1776 82.6987 85.0578C83.4509 84.3892 84.2323 83.7752 85.0388 83.2157ZM31.0119 102.652C30.6639 101.202 29.9677 100.042 28.9234 99.1715C27.8791 98.3013 26.6028 97.8662 25.0944 97.8662C23.9341 97.8662 22.8028 98.2143 21.7005 98.9105C20.6563 99.5486 19.9021 100.535 19.4379 101.869C19.0772 102.906 18.9969 104.083 19.1968 105.401C19.2011 105.429 19.2054 105.457 19.2099 105.485C19.2662 105.836 19.3422 106.197 19.4379 106.568L32.0562 154.692C32.5784 156.781 33.6806 158.405 35.3631 159.565C37.0455 160.668 39.047 161.219 41.3676 161.219C43.6882 161.219 45.6897 160.668 47.3722 159.565C49.0546 158.463 50.1569 156.839 50.679 154.692L60.5996 116.663L61.2088 114.226C61.332 113.687 61.4532 113.15 61.5724 112.615C61.5784 112.588 61.5845 112.561 61.5905 112.533C61.8431 111.398 62.0865 110.271 62.3206 109.153C62.3271 109.122 62.3336 109.091 62.3401 109.061C62.3499 109.013 62.3598 108.966 62.3697 108.919C62.3786 108.876 62.3876 108.833 62.3966 108.79C62.436 108.6 62.4752 108.411 62.5141 108.222C62.531 108.328 62.548 108.433 62.5649 108.537C62.6141 108.841 62.6632 109.14 62.7124 109.433C62.7375 109.582 62.7625 109.73 62.7875 109.877C62.9284 110.702 63.0694 111.485 63.2103 112.225C63.4382 113.182 63.6482 114.05 63.8403 114.828C63.8452 114.848 63.8502 114.868 63.8551 114.888C63.9023 115.079 63.9485 115.265 63.9935 115.445L64.2546 116.663L73.1309 154.692C73.653 156.781 74.7263 158.405 76.3507 159.565C77.9751 160.668 79.9476 161.219 82.2682 161.219C84.5888 161.219 86.5904 160.668 88.2728 159.565C89.9552 158.463 91.0575 156.839 91.5797 154.692L104.285 106.307C104.321 106.162 104.355 106.018 104.386 105.876C104.392 105.85 104.397 105.824 104.403 105.799C104.751 104.163 104.74 102.766 104.372 101.608C103.966 100.332 103.27 99.4036 102.283 98.8235C101.297 98.1853 100.224 97.8662 99.0636 97.8662C97.6132 97.8662 96.3659 98.3303 95.3216 99.2586C94.3354 100.187 93.6392 101.463 93.2331 103.088L84.5308 138.941C84.3281 139.766 84.1308 140.612 83.9388 141.477C83.9319 141.508 83.925 141.539 83.9181 141.571C83.8575 141.845 83.7974 142.121 83.7378 142.4C83.5137 143.448 83.2972 144.524 83.0884 145.629C83.0873 145.634 83.0863 145.64 83.0852 145.646C82.8304 146.995 82.5871 148.386 82.3553 149.819C82.3267 149.654 82.2977 149.491 82.2682 149.329C82.0585 148.171 81.8264 147.058 81.5721 145.99C81.2954 144.772 81.0187 143.581 80.742 142.416C80.7286 142.36 80.7152 142.304 80.7018 142.248C80.4698 141.145 80.2087 140.043 79.9186 138.941L71.9126 104.567C71.3904 102.42 70.2591 100.767 68.5187 99.6067C66.7782 98.4464 64.7187 97.8662 62.3401 97.8662C60.0195 97.8662 57.9599 98.4464 56.1615 99.6067C54.421 100.767 53.2897 102.42 52.7676 104.567L44.0653 138.941C43.8401 139.855 43.627 140.75 43.4259 141.624C43.421 141.646 43.416 141.668 43.4111 141.689C43.3484 141.962 43.287 142.233 43.2267 142.503C43.0078 143.481 42.8045 144.433 42.6168 145.36C42.6153 145.367 42.6138 145.375 42.6123 145.382C42.307 146.892 42.043 148.334 41.8204 149.709C41.8145 149.746 41.8086 149.782 41.8027 149.819C41.7991 149.797 41.7954 149.775 41.7918 149.753C41.6597 148.964 41.5183 148.185 41.3676 147.415C41.2566 146.848 41.1406 146.286 41.0195 145.729C40.6715 144.22 40.4104 143.118 40.2363 142.422C40.2299 142.394 40.2234 142.366 40.2167 142.337C40.0429 141.581 39.7884 140.449 39.4531 138.941L31.0119 102.652Z" fill="#EBFF00"/>
<path fill-rule="evenodd" clip-rule="evenodd" d="M256.57 94.2338C256.462 94.1139 256.357 93.9926 256.253 93.87C251.349 88.1009 250.25 81.4334 250.25 76.6044V49.4212C249.567 49.3168 248.872 49.1841 248.168 49.0186C247.894 44.37 246.85 40.1566 245.036 36.3784C244.952 36.2037 244.866 36.0299 244.779 35.857C244.605 35.5122 244.425 35.171 244.238 34.8335C242.341 31.2929 239.924 28.3342 236.986 25.9572C235.88 25.0626 234.7 24.2504 233.447 23.5206C232.402 22.9046 231.327 22.3597 230.221 21.8859C231.027 17.0143 233.352 12.0632 237.795 8.14242C237.929 8.02407 238.065 7.90763 238.203 7.79311C243.525 3.35751 249.63 2.08398 254.543 2.08398H295.27C299.987 2.08398 306.138 3.2668 311.487 7.76072C317.51 12.6883 319.926 19.5895 319.926 25.8702C319.926 32.2434 317.468 38.9702 311.729 43.8612C307.858 47.2012 303.545 48.7743 299.65 49.3981V76.6044C299.65 81.4334 298.551 88.1009 293.647 93.87C293.543 93.9926 293.437 94.1139 293.33 94.2338C287.973 100.221 280.931 102.218 274.993 102.218C269.213 102.218 262.042 100.35 256.57 94.2338ZM295.27 30.7435C297.01 30.7435 298.374 30.3084 299.36 29.4382C300.404 28.5679 300.926 27.3786 300.926 25.8702C300.926 24.3618 300.404 23.2015 299.36 22.3893C298.374 21.5191 297.01 21.084 295.27 21.084H254.543C252.803 21.084 251.41 21.5191 250.366 22.3893C249.38 23.2596 248.887 24.4489 248.887 25.9572C248.887 27.4656 249.38 28.6549 250.366 29.5252C251.41 30.3374 252.803 30.7435 254.543 30.7435H269.25V76.6044C269.25 78.7509 269.743 80.4044 270.729 81.5647C271.716 82.667 273.137 83.2181 274.993 83.2181C276.792 83.2181 278.184 82.667 279.171 81.5647C280.157 80.4044 280.65 78.7509 280.65 76.6044V30.7435H295.27ZM232.124 36.2112C232.654 37.3482 233.286 38.4626 234.029 39.5391C233.476 38.3252 232.841 37.2159 232.124 36.2112Z" fill="#EBFF00"/>
<path fill-rule="evenodd" clip-rule="evenodd" d="M193.483 96.4226C193.422 96.389 193.362 96.3551 193.302 96.3208C185.564 91.8989 179.592 85.5431 175.409 77.8282C175.391 77.7941 175.372 77.76 175.354 77.7257C175.344 77.7077 175.335 77.6896 175.325 77.6715C174.721 76.5325 174.168 75.3771 173.663 74.2072C175.095 72.5924 176.355 70.7808 177.444 68.7724C179.491 64.9518 180.735 60.5963 181.177 55.706C181.299 54.3585 181.36 52.9705 181.36 51.5419C181.36 50.1683 181.297 48.8304 181.171 47.528C180.718 42.8344 179.446 38.6029 177.357 34.8335C176.282 32.8273 175.04 31.0079 173.631 29.3753C174.146 28.1844 174.71 27.0079 175.325 25.8474L175.364 25.7743C179.531 17.9953 185.505 11.5926 193.242 7.10916C200.909 2.60648 209.37 0.517578 218.132 0.517578C226.906 0.517578 235.378 2.61231 243.054 7.12801C249.147 10.6849 254.172 15.4129 258.078 21.084H254.544C252.804 21.084 251.411 21.5191 250.367 22.3893C249.381 23.2596 248.888 24.4489 248.888 25.9572C248.888 26.4775 248.946 26.9599 249.064 27.4043C249.264 28.1614 249.634 28.8084 250.175 29.3451C250.236 29.4066 250.301 29.4666 250.367 29.5252C250.885 29.9279 251.488 30.2308 252.177 30.4339C252.237 30.4514 252.297 30.4682 252.358 30.4842C253.012 30.6571 253.741 30.7435 254.544 30.7435H263.317C266.029 37.3429 267.242 44.3691 267.242 51.5419C267.242 60.6743 265.427 69.6185 261.074 77.7446L261.029 77.8282C256.778 85.6679 250.658 92.0356 242.78 96.4233L242.708 96.4633C235.523 100.424 227.707 102.333 219.658 102.546C219.169 102.216 218.661 101.91 218.132 101.627C214.963 99.9316 211.07 99.084 206.453 99.084H199.131C197.236 98.3382 195.376 97.4666 193.556 96.4633C193.532 96.4498 193.507 96.4362 193.483 96.4226ZM244.353 35.0415C244.315 34.972 244.277 34.9027 244.239 34.8335C241.628 29.9603 238.031 26.1893 233.448 23.5206C233.42 23.5042 233.392 23.4879 233.365 23.4716C233.322 23.4466 233.279 23.4217 233.236 23.3968C228.764 20.8107 223.729 19.5176 218.132 19.5176C212.543 19.5176 207.515 20.8069 203.047 23.3857C202.97 23.4303 202.893 23.4752 202.816 23.5206C198.291 26.1313 194.723 29.8733 192.112 34.7465C192.056 34.8531 192 34.9601 191.945 35.0675C191.934 35.0888 191.923 35.1102 191.912 35.1316C189.493 39.8595 188.283 45.3296 188.283 51.5419C188.283 57.9689 189.468 63.5345 191.836 68.2388C191.927 68.4179 192.019 68.5958 192.112 68.7724C194.723 73.5876 198.262 77.2716 202.729 79.8242C202.801 79.8637 202.872 79.9028 202.944 79.9416C202.99 79.9663 203.035 79.9908 203.081 80.0152C207.52 82.3825 212.537 83.5662 218.132 83.5662C223.718 83.5662 228.728 82.3864 233.161 80.0267C233.286 79.9602 233.411 79.8927 233.535 79.8242C238.118 77.2716 241.715 73.5876 244.326 68.7724C244.382 68.6672 244.438 68.5616 244.493 68.4556C244.518 68.4074 244.543 68.3591 244.568 68.3107C247.017 63.5376 248.242 57.9479 248.242 51.5419C248.242 45.3982 246.982 39.9663 244.463 35.2464C244.427 35.1779 244.39 35.1096 244.353 35.0415ZM234.285 63.3286C235.758 60.0269 236.494 56.0979 236.494 51.5419C236.494 47.2976 235.787 43.5508 234.373 40.3015C234.351 40.2521 234.33 40.2029 234.308 40.1537C234.254 40.0331 234.2 39.9131 234.144 39.7938C232.745 36.6184 230.796 34.1419 228.298 32.3645C228.283 32.3535 228.267 32.3425 228.252 32.3315C228.072 32.2047 227.89 32.0815 227.704 31.9618C224.92 30.1053 221.729 29.1771 218.132 29.1771C214.535 29.1771 211.373 30.0763 208.646 31.8748C208.429 32.0182 208.215 32.1668 208.006 32.3206C207.979 32.34 207.953 32.3594 207.927 32.379C205.544 34.1487 203.667 36.5913 202.294 39.7068C202.241 39.8244 202.189 39.9427 202.138 40.0617C202.132 40.0769 202.125 40.0921 202.119 40.1073C200.727 43.3835 200.031 47.195 200.031 51.5419C200.031 56.0727 200.75 59.9954 202.188 63.3098C202.202 63.3428 202.216 63.3756 202.231 63.4084C202.251 63.4561 202.273 63.5036 202.294 63.551C203.637 66.5471 205.463 68.9223 207.772 70.6765C207.815 70.709 207.858 70.7413 207.901 70.7734C208.144 70.9544 208.393 71.1286 208.646 71.296C211.373 73.0365 214.535 73.9067 218.132 73.9067C221.729 73.9067 224.92 73.0365 227.704 71.296C227.973 71.1282 228.235 70.9529 228.492 70.77C228.504 70.7612 228.517 70.7524 228.529 70.7436C230.916 69.0315 232.788 66.6629 234.144 63.638C234.184 63.5527 234.223 63.467 234.262 63.3809C234.27 63.3635 234.277 63.3461 234.285 63.3286ZM169.402 55.5826C169.322 54.2405 169.283 52.8928 169.283 51.5419C169.283 50.2425 169.321 48.9473 169.399 47.6581C169.541 48.9027 169.612 50.1973 169.612 51.5419C169.612 52.9486 169.542 54.2955 169.402 55.5826Z" fill="#EBFF00"/>
<path fill-rule="evenodd" clip-rule="evenodd" d="M126.528 96.3821C126.492 96.3618 126.456 96.3414 126.42 96.3208C118.692 91.9047 112.725 85.5598 108.544 77.8587C108.583 77.8244 108.623 77.7898 108.662 77.7552C108.836 77.6008 109.007 77.4437 109.174 77.284C110.186 76.3155 111.058 75.2478 111.79 74.0807C113.705 71.122 114.662 67.7281 114.662 63.8991C114.662 60.6503 113.908 57.8365 112.4 55.4579C111.513 53.9683 110.42 52.6629 109.122 51.5419C108.296 50.8292 107.387 50.1911 106.395 49.6274C105.194 48.9288 103.898 48.3245 102.508 47.8143C102.674 44.9489 103.037 42.1125 103.618 39.324C103.701 39.3962 103.785 39.4658 103.871 39.5328C104.916 40.287 106.163 40.6641 107.613 40.6641C108.774 40.6641 109.847 40.316 110.833 39.6198C111.877 38.8656 112.545 37.7633 112.835 36.3129C113.125 34.8045 112.748 32.9771 111.703 30.8305C110.83 29.0834 109.693 27.5171 108.293 26.1317C108.343 26.0368 108.393 25.942 108.443 25.8474L108.482 25.7743C112.649 17.9953 118.623 11.5926 126.359 7.10916C134.027 2.60648 142.488 0.517578 151.25 0.517578C160.023 0.517578 168.494 2.61195 176.17 7.12684C183.865 11.618 189.855 17.9768 194.041 25.7436C194.687 26.9154 195.278 28.1041 195.818 29.308C194.421 30.9295 193.185 32.7423 192.112 34.7465C190.113 38.516 188.897 42.7655 188.463 47.4949C188.343 48.807 188.283 50.156 188.283 51.5419C188.283 52.9842 188.342 54.3831 188.462 55.7387C188.894 60.6535 190.111 64.9981 192.112 68.7724C193.208 70.7947 194.468 72.6175 195.892 74.2408C195.375 75.424 194.809 76.5925 194.192 77.7446L194.147 77.8282C189.896 85.6679 183.776 92.0356 175.898 96.4233L175.826 96.4633C169.602 99.8941 162.905 101.786 155.993 102.369C155.547 102.075 155.092 101.792 154.626 101.521C153.534 100.877 152.409 100.311 151.25 99.8224C147.604 98.2858 143.624 97.5176 139.31 97.5176C136.388 97.5176 133.62 97.8698 131.005 98.5744C129.539 97.949 128.094 97.2462 126.674 96.4633C126.625 96.4365 126.577 96.4094 126.528 96.3821ZM200.236 47.614C200.319 48.9172 200.36 50.2271 200.36 51.5419C200.36 52.8932 200.32 54.2404 200.238 55.5815C200.1 54.2934 200.031 52.9469 200.031 51.5419C200.031 50.1801 200.099 48.8708 200.236 47.614ZM135.934 23.5206C131.409 26.1313 127.841 29.8733 125.23 34.7465C125.174 34.8531 125.118 34.9601 125.062 35.0675C125.051 35.0888 125.04 35.1102 125.029 35.1316C122.611 39.8595 121.401 45.3296 121.401 51.5419C121.401 57.9689 122.585 63.5345 124.954 68.2388C125.044 68.4179 125.136 68.5958 125.23 68.7724C127.841 73.5876 131.38 77.2716 135.847 79.8242C135.918 79.8637 135.99 79.9028 136.062 79.9416C136.107 79.9663 136.153 79.9908 136.199 80.0152C140.638 82.3825 145.655 83.5662 151.25 83.5662C156.836 83.5662 161.845 82.3864 166.279 80.0267C166.404 79.9602 166.529 79.8927 166.653 79.8242C171.236 77.2716 174.833 73.5876 177.444 68.7724C177.5 68.6672 177.556 68.5616 177.611 68.4556C177.636 68.4074 177.661 68.3591 177.686 68.3107C180.135 63.5376 181.36 57.9479 181.36 51.5419C181.36 45.3982 180.1 39.9663 177.581 35.2464C177.545 35.1779 177.508 35.1096 177.471 35.0415C177.433 34.972 177.395 34.9027 177.357 34.8335C174.746 29.9603 171.149 26.1893 166.566 23.5206C166.538 23.5042 166.51 23.4879 166.482 23.4716C166.44 23.4466 166.397 23.4217 166.354 23.3969C161.881 20.8107 156.847 19.5176 151.25 19.5176C145.661 19.5176 140.633 20.8069 136.165 23.3857C136.088 23.4303 136.011 23.4752 135.934 23.5206ZM167.262 39.7938C165.863 36.6184 163.914 34.1419 161.416 32.3645C161.401 32.3535 161.385 32.3425 161.37 32.3315C161.19 32.2047 161.008 32.0815 160.822 31.9618C158.038 30.1053 154.847 29.1771 151.25 29.1771C147.653 29.1771 144.491 30.0763 141.764 31.8748C141.547 32.0182 141.333 32.1668 141.124 32.3206C141.097 32.34 141.071 32.3594 141.044 32.379C138.662 34.1487 136.785 36.5913 135.412 39.7068C135.359 39.8244 135.307 39.9427 135.256 40.0617C135.25 40.0769 135.243 40.0921 135.237 40.1073C133.845 43.3835 133.149 47.195 133.149 51.5419C133.149 56.0727 133.868 59.9954 135.305 63.3098C135.32 63.3428 135.334 63.3756 135.348 63.4084C135.369 63.4561 135.39 63.5036 135.412 63.551C136.755 66.5471 138.581 68.9223 140.89 70.6765C140.933 70.709 140.976 70.7413 141.019 70.7734C141.262 70.9544 141.51 71.1286 141.764 71.296C144.491 73.0365 147.653 73.9067 151.25 73.9067C154.847 73.9067 158.038 73.0365 160.822 71.296C161.091 71.1282 161.353 70.9529 161.61 70.77C161.622 70.7612 161.634 70.7524 161.647 70.7436C164.034 69.0315 165.906 66.6629 167.262 63.638C167.302 63.5527 167.341 63.467 167.38 63.3809C167.387 63.3635 167.395 63.3461 167.403 63.3286C168.875 60.0269 169.612 56.0979 169.612 51.5419C169.612 47.2976 168.905 43.5508 167.49 40.3015C167.469 40.2521 167.447 40.2029 167.426 40.1537C167.372 40.0331 167.317 39.9131 167.262 39.7938Z" fill="#EBFF00"/>
<path fill-rule="evenodd" clip-rule="evenodd" d="M48.5551 78.238C48.5331 78.1911 48.5114 78.1442 48.4898 78.0972C46.682 74.1627 44.7091 68.0783 46.0522 61.0942C46.622 58.1315 47.7551 55.0094 49.6437 52.1121C47.6964 47.6564 46.7546 42.833 46.7546 37.8793C46.7546 30.4326 48.9799 23.3277 53.4483 17.1996C57.731 11.3261 63.3989 7.172 69.6555 4.44733C69.6894 4.4326 69.7232 4.41797 69.7571 4.40343C76.0818 1.69284 82.7671 0.517578 89.5118 0.517578C94.6782 0.517578 99.8845 1.16231 104.921 2.74577C109.9 4.23727 114.724 6.6302 118.969 10.2087C123.008 13.5114 126.318 17.5765 128.697 22.3335C128.727 22.395 128.758 22.4568 128.788 22.5187C129.455 23.8891 130.155 25.5419 130.725 27.4207C128.572 29.4835 126.74 31.9255 125.229 34.7465C124.611 35.9128 124.067 37.125 123.599 38.3832C123.589 38.4088 123.58 38.4345 123.57 38.4602C123.516 38.6067 123.463 38.7538 123.411 38.9015C122.248 42.2005 121.589 45.8091 121.435 49.7274C121.431 49.8468 121.426 49.9665 121.423 50.0865C121.408 50.567 121.4 51.0521 121.4 51.5419C121.4 52.501 121.426 53.441 121.479 54.3617C121.486 54.4866 121.494 54.6112 121.502 54.7355C121.515 54.929 121.529 55.1216 121.544 55.3134C121.785 58.3968 122.331 61.2587 123.182 63.8991C123.735 65.6173 124.418 67.2417 125.229 68.7724C126.929 71.9084 129.023 74.5646 131.511 76.741C130.592 79.3434 129.366 81.8722 127.812 84.2922C123.723 90.7556 117.948 95.308 111.52 98.2774C109.107 99.4018 106.628 100.272 104.111 100.925C103.693 99.9949 103.083 99.2941 102.282 98.8229C101.296 98.1848 100.222 97.8657 99.0622 97.8657C97.6118 97.8657 96.3645 98.3298 95.3202 99.258C94.4562 100.071 93.8149 101.151 93.3961 102.499C92.4191 102.544 91.4428 102.566 90.469 102.566C84.8252 102.566 79.1974 101.831 73.777 100.088C68.4343 98.371 63.3739 95.7273 58.9317 91.9515C58.8625 91.8927 58.7938 91.8334 58.7254 91.7736C54.3917 87.9816 50.984 83.4126 48.5551 78.238ZM111.832 31.103C111.79 31.0127 111.747 30.9219 111.703 30.8305C111.565 30.5554 111.421 30.2848 111.27 30.0187C111.193 29.8826 111.115 29.7476 111.034 29.6139C110.116 28.0868 108.975 26.7126 107.612 25.4913C107.359 25.2642 107.098 25.0425 106.829 24.826C106.708 24.722 106.585 24.6197 106.461 24.5189C106.381 24.4541 106.3 24.3899 106.218 24.3263C105.294 23.6055 104.282 22.9672 103.182 22.4115C102.004 21.8163 100.725 21.3158 99.3453 20.9099C98.9278 20.7763 98.5024 20.6523 98.0693 20.5379C95.4931 19.8577 92.6406 19.5176 89.5118 19.5176C89.3371 19.5176 89.163 19.5187 88.9896 19.5211C85.7462 19.5647 82.7297 20.0168 79.94 20.8773C79.851 20.9047 79.7623 20.9326 79.6738 20.9608C78.8427 21.2263 78.032 21.5284 77.2416 21.8672C74.7206 22.965 72.5844 24.3621 70.8329 26.0584C70.8227 26.0683 70.8125 26.0782 70.8023 26.0881C70.0668 26.8037 69.3995 27.5723 68.8004 28.3939C66.9548 30.9251 65.9479 33.7678 65.7799 36.9221C65.763 37.2381 65.7546 37.5571 65.7546 37.8793C65.7546 39.1166 65.8659 40.2942 66.0886 41.4119C66.6776 44.3687 68.0456 46.9072 70.1928 49.0272C70.2785 49.1119 70.3656 49.1959 70.4538 49.2793C71.3441 50.1036 72.3141 50.8507 73.3637 51.5204C73.4429 51.571 73.5226 51.6211 73.6027 51.6707C75.4937 52.8429 77.6375 53.7698 80.0339 54.4514C80.1423 54.4823 80.2513 54.5126 80.3607 54.5424C81.1505 54.7577 81.9673 54.9468 82.811 55.1098L93.1667 57.1113C93.2453 57.126 93.3234 57.1408 93.401 57.1559C93.4453 57.1645 93.4895 57.1731 93.5335 57.1818C94.2342 57.3207 94.8957 57.4759 95.518 57.6476C95.5248 57.6495 95.5317 57.6513 95.5385 57.6532C97.5948 58.2224 99.2226 58.9713 100.422 59.8999C100.453 59.9243 100.485 59.9489 100.516 59.9736C100.591 60.034 100.665 60.0952 100.738 60.1571C101.267 60.5916 101.709 61.0753 102.066 61.6082C102.129 61.7024 102.19 61.7982 102.247 61.8954C102.608 62.5033 102.863 63.1712 103.013 63.8991C103.121 64.4195 103.174 64.9707 103.174 65.5525C103.174 66.5322 103.038 67.4282 102.764 68.2408C102.748 68.2895 102.731 68.3379 102.714 68.386C102.454 69.1037 102.086 69.7547 101.608 70.3388C101.01 71.0365 100.279 71.6295 99.4143 72.1179C99.3968 72.1278 99.3793 72.1376 99.3618 72.1474C98.7303 72.4989 98.0286 72.7953 97.2568 73.0365C95.4583 73.6166 93.3698 73.9067 90.9912 73.9067C90.8164 73.9067 90.6423 73.9047 90.469 73.9007C90.3252 73.8973 90.1819 73.8926 90.0391 73.8866C90.0012 73.8849 89.9633 73.8832 89.9255 73.8814C89.7782 73.8744 89.6314 73.8658 89.4852 73.8558C89.3319 73.8454 89.1792 73.8332 89.0271 73.8195C88.4731 73.7695 87.9269 73.6981 87.3886 73.6051C86.4786 73.448 85.5909 73.2294 84.7255 72.9494C84.0406 72.7211 83.3853 72.452 82.7598 72.142C82.5381 72.0321 82.3202 71.9171 82.1059 71.797C81.3148 71.3534 80.5744 70.8398 79.885 70.2562C79.8846 70.2558 79.8842 70.2555 79.8838 70.2551C79.8148 70.1967 79.7462 70.1375 79.6782 70.0777C79.3039 69.7483 78.9527 69.3995 78.6248 69.0315C78.5887 68.991 78.553 68.9503 78.5175 68.9094C78.0288 68.3459 77.5933 67.7382 77.2109 67.0863C76.8948 66.5472 76.6149 65.978 76.3714 65.3785C76.361 65.3526 76.3506 65.3268 76.3402 65.3011C76.3282 65.2716 76.3162 65.2422 76.3042 65.2129C75.6213 63.555 74.8024 62.3049 73.8477 61.4625C72.8615 60.5342 71.6431 60.0701 70.1928 60.0701C68.9164 60.0701 67.7561 60.4762 66.7119 61.2884C65.6676 62.0426 65.0004 63.1739 64.7103 64.6823C64.4858 65.8498 64.6436 67.2084 65.1837 68.7582C65.2912 69.0667 65.4139 69.3827 65.5517 69.7064C65.5598 69.7255 65.568 69.7447 65.5763 69.764C65.6234 69.8735 65.6723 69.9839 65.7228 70.0952C65.7334 70.1183 65.7439 70.1415 65.7546 70.1647C65.8026 70.2668 65.8511 70.3684 65.9003 70.4695C67.0084 72.7456 68.4392 74.7559 70.1928 76.5004C70.529 76.8349 70.8771 77.1597 71.237 77.4746C71.6046 77.7871 71.9839 78.0879 72.3748 78.3771C72.5609 78.5148 72.7497 78.6498 72.9411 78.7822C74.8854 80.1272 77.1021 81.1997 79.5912 81.9998C80.2218 82.2025 80.8667 82.3855 81.5257 82.5489C81.5548 82.5561 81.5838 82.5632 81.6129 82.5704C84.3252 83.2343 87.2772 83.5662 90.469 83.5662C90.644 83.5662 90.818 83.5652 90.9912 83.5632C94.3858 83.5245 97.4402 83.1062 100.154 82.3083C100.183 82.3 100.211 82.2916 100.24 82.2831C101.396 81.9389 102.49 81.5253 103.522 81.0425C105.856 79.9681 107.824 78.6335 109.424 77.0386C109.48 76.9828 109.536 76.9268 109.591 76.8703C110.427 76.0138 111.16 75.084 111.79 74.0807C113.424 71.5551 114.361 68.7123 114.6 65.5525C114.641 65.0107 114.661 64.4596 114.661 63.8991C114.661 62.0728 114.423 60.3839 113.946 58.8326C113.575 57.6243 113.059 56.4994 112.399 55.4579C111.382 53.7495 110.094 52.2835 108.535 51.06C108.469 51.0084 108.403 50.9572 108.336 50.9064C108.101 50.7274 107.86 50.5537 107.612 50.3855C107.221 50.1193 106.815 49.8667 106.394 49.6274C104.154 48.3251 101.587 47.3502 98.6922 46.7028C98.5792 46.6775 98.4657 46.6527 98.3517 46.6284C98.1336 46.582 97.9136 46.5374 97.6919 46.4946L87.4232 44.4931C86.549 44.3182 85.7315 44.1324 84.9708 43.9356C84.9704 43.9355 84.9701 43.9354 84.9697 43.9353C84.6783 43.8599 84.3951 43.7829 84.1203 43.7043C84.0995 43.6983 84.0788 43.6924 84.058 43.6864C82.2237 43.1575 80.7638 42.5562 79.6782 41.8824C79.2014 41.57 78.7921 41.2133 78.4504 40.8123C78.4253 40.7829 78.4006 40.7531 78.3762 40.7232C77.7378 39.9391 77.3496 38.9912 77.2116 37.8793C77.1736 37.5727 77.1546 37.2536 77.1546 36.9221C77.1546 36.1395 77.269 35.4107 77.498 34.7358C77.7442 34.0099 78.1229 33.3463 78.634 32.745C79.2961 31.9725 80.1099 31.3283 81.0752 30.8124C81.0919 30.8034 81.1087 30.7946 81.1255 30.7857C81.6688 30.4994 82.2597 30.2532 82.8981 30.0473C84.318 29.5434 85.8827 29.2385 87.592 29.1325C87.7425 29.1231 87.8942 29.1153 88.0469 29.1091C88.3566 29.0964 88.6708 29.0901 88.9896 29.0901C89.1654 29.0901 89.3394 29.0919 89.5118 29.0956C89.8188 29.1022 90.1206 29.1146 90.4172 29.1328C90.4429 29.1344 90.4686 29.136 90.4943 29.1377C91.682 29.2151 92.7848 29.3869 93.8026 29.6531C94.1518 29.7444 94.491 29.8468 94.8202 29.9603C94.8848 29.9826 94.9489 30.0052 95.0127 30.0281C95.4489 30.1853 95.8651 30.3584 96.2613 30.5476C96.3346 30.5826 96.4073 30.6182 96.4793 30.6543C97.4413 31.1371 98.2806 31.718 98.9972 32.3969C99.2541 32.6267 99.4952 32.8676 99.7206 33.1195C99.796 33.2038 99.8697 33.2893 99.9416 33.3762C100.019 33.4699 100.095 33.5651 100.168 33.6617C100.175 33.6703 100.182 33.679 100.188 33.6877C100.216 33.7251 100.244 33.7627 100.272 33.8006C100.299 33.8377 100.326 33.8751 100.353 33.9127C100.772 34.5061 101.117 35.1511 101.389 35.8479C101.404 35.8867 101.419 35.9257 101.434 35.9648C102.014 37.5312 102.826 38.7206 103.871 39.5328C104.915 40.287 106.162 40.6641 107.612 40.6641C108.773 40.6641 109.846 40.316 110.832 39.6198C111.877 38.8656 112.544 37.7633 112.834 36.3129C113.071 35.08 112.862 33.6338 112.208 31.9745C112.202 31.96 112.196 31.9456 112.191 31.9311C112.083 31.6607 111.964 31.3846 111.832 31.103Z" fill="#EBFF00"/>
</svg>
