<svg width="256" height="256" viewBox="0 0 256 256" fill="none" xmlns="http://www.w3.org/2000/svg">
<path fill-rule="evenodd" clip-rule="evenodd" d="M120.949 66.1325C120.333 66.0572 119.738 65.9844 119.172 65.9089H119.178C120.473 65.6582 121.793 65.4185 123.129 65.176C126.215 64.6158 129.383 64.0408 132.503 63.2817C137.087 62.1657 139.983 59.0463 141.248 54.5247C141.883 52.241 142.324 49.8944 142.731 47.5535C142.995 46.0186 143.183 44.4701 143.365 42.9774C143.446 42.3048 143.527 41.6436 143.612 41C143.833 42.2398 144.043 43.4914 144.256 44.7498C144.753 47.7028 145.257 50.6929 145.907 53.6548C147.08 58.9948 150.452 62.3946 155.797 63.5736C158.697 64.2157 161.629 64.7142 164.516 65.2051C165.824 65.4274 167.123 65.6483 168.406 65.8802C168.316 65.897 168.21 65.9186 168.093 65.9425C167.809 66.0005 167.458 66.072 167.101 66.1206C166.174 66.2518 165.244 66.3711 164.314 66.4903C162.363 66.7405 160.412 66.9907 158.482 67.3512C150.177 68.908 146.932 72.1017 145.312 80.3951C144.848 82.7643 144.509 85.1576 144.162 87.6031C144.003 88.7201 143.843 89.848 143.669 90.9894C143.63 90.7031 143.595 90.429 143.561 90.1636C143.485 89.5747 143.415 89.0288 143.32 88.4882C143.122 87.3671 142.938 86.2429 142.755 85.119C142.326 82.4847 141.897 79.852 141.271 77.2644C140.115 72.4623 136.927 69.4231 132.148 68.1697C129.898 67.5801 127.603 67.1337 125.308 66.7388C123.828 66.4849 122.338 66.3025 120.949 66.1325ZM176.406 82.1442L176.406 82.1454L176.406 82.1461C175.713 86.4562 175.013 90.8133 174.114 95.1333C172.465 103.043 167.897 108.538 159.904 110.706C157.147 111.451 154.347 112.085 151.533 112.549C149.808 112.833 148.079 113.079 146.344 113.324C144.042 113.651 141.731 113.978 139.414 114.4C140.227 114.501 141.04 114.597 141.854 114.693L141.854 114.693L141.855 114.693C143.747 114.916 145.64 115.139 147.519 115.434C150.803 115.948 154.08 116.532 157.35 117.179C167.083 119.093 172.704 125.131 174.472 134.785C175.2 138.759 175.812 142.756 176.419 146.722L176.419 146.723C176.707 148.607 176.995 150.484 177.293 152.349C177.442 151.22 177.585 150.076 177.729 148.924C178.048 146.377 178.373 143.787 178.774 141.21C179.188 138.55 179.749 135.918 180.338 133.286C182.352 124.216 188.113 118.953 197.067 117.221C200.716 116.518 204.397 115.986 208.079 115.454L208.079 115.453L208.081 115.453C209.774 115.209 211.467 114.964 213.158 114.702C213.688 114.623 214.218 114.533 214.973 114.405L214.976 114.404L215.333 114.343C213.707 114.097 212.113 113.861 210.542 113.628L210.54 113.628C206.688 113.058 202.976 112.508 199.278 111.874C197.222 111.522 195.194 110.881 193.201 110.241C186.198 107.989 182.135 102.944 180.57 95.9636C179.697 92.0557 179.087 88.088 178.478 84.1227L178.478 84.1223L178.478 84.1205C178.225 82.4745 177.972 80.8289 177.7 79.1881C177.593 78.5429 177.516 77.8916 177.446 77.2938C177.411 76.9919 177.377 76.7036 177.342 76.4368V76.4297C177.02 78.3203 176.714 80.2276 176.406 82.1442ZM111.26 151.034C106.35 155.574 99.7833 158.349 92.5683 158.349C77.3599 158.349 65.031 146.02 65.031 130.812C65.031 115.603 77.3599 103.274 92.5683 103.274C107.777 103.274 120.106 115.603 120.106 130.812C120.106 138.027 117.331 144.595 112.789 149.505C112.504 149.718 112.23 149.955 111.97 150.215C111.71 150.474 111.474 150.748 111.26 151.034ZM116.883 165.757C109.99 170.562 101.608 173.38 92.5683 173.38C69.0585 173.38 50 154.321 50 130.812C50 107.302 69.0585 88.2433 92.5683 88.2433C116.078 88.2433 135.137 107.302 135.137 130.812C135.137 139.852 132.318 148.235 127.512 155.128L156.928 184.544C159.863 187.479 159.863 192.238 156.928 195.173C153.993 198.108 149.234 198.108 146.299 195.173L116.883 165.757Z" fill="#666666"/>
</svg>
